Coordinates
version=1
nRows=14
nColumns=63
inDegrees=yes

Units are S.I. units (second, meters, Newtons, ...)
If the header above contains a line with 'inDegrees', this indicates whether rotational values are in degrees (yes) or radians (no).

endheader
time	pelvis_tilt	pelvis_list	pelvis_rotation	pelvis_tx	pelvis_ty	pelvis_tz	hip_flexion_r	hip_adduction_r	hip_rotation_r	knee_angle_r	knee_angle_r_beta	ankle_angle_r	subtalar_angle_r	mtp_angle_r	hip_flexion_l	hip_adduction_l	hip_rotation_l	knee_angle_l	knee_angle_l_beta	ankle_angle_l	subtalar_angle_l	mtp_angle_l	L5_S1_Flex_Ext	L5_S1_Lat_Bending	L5_S1_axial_rotation	L4_L5_Flex_Ext	L4_L5_Lat_Bending	L4_L5_axial_rotation	L3_L4_Flex_Ext	L3_L4_Lat_Bending	L3_L4_axial_rotation	L2_L3_Flex_Ext	L2_L3_Lat_Bending	L2_L3_axial_rotation	L1_L2_Flex_Ext	L1_L2_Lat_Bending	L1_L2_axial_rotation	L1_T12_Flex_Ext	L1_T12_Lat_Bending	L1_T12_axial_rotation	Abs_r3	Abs_r2	Abs_r1	Abs_t1	Abs_t2	neck_flexion	neck_bending	neck_rotation	arm_flex_r	arm_add_r	arm_rot_r	elbow_flex_r	pro_sup_r	wrist_flex_r	wrist_dev_r	arm_flex_l	arm_add_l	arm_rot_l	elbow_flex_l	pro_sup_l	wrist_flex_l	wrist_dev_l
2.271186	-2.581105	2.292440	88.957213	0.257656	0.923836	0.617884	2.244568	-3.239903	-0.023224	17.251351	0.301093	33.552827	-7.093836	0.000000	-1.692626	4.223107	9.864374	6.878693	0.120056	32.610045	-9.655960	0.000000	0.071048	-0.059656	-1.486913	0.131943	-0.079343	-1.579845	0.116725	-0.145049	-1.579845	0.081201	-0.145049	-1.301048	0.065975	-0.121652	-1.208116	0.040597	-0.092408	-1.115184	0.507488	-0.674846	-8.269761	0.000000	0.000000	9.379766	-3.773140	14.717014	0.990671	-15.174730	-10.075709	89.947062	86.260639	-14.488143	26.831628	-24.401346	-9.528915	-40.871357	96.961623	84.950490	-11.502386	17.572091
2.288136	-2.522425	2.300865	89.253139	0.256990	0.923834	0.617563	2.111071	-3.211575	-0.435376	17.200596	0.300207	33.292649	-7.077098	0.000000	-1.799792	4.170522	10.149546	6.745998	0.117740	32.507551	-9.670734	0.000000	0.073889	-0.053965	-1.448694	0.137219	-0.071773	-1.539237	0.121392	-0.131210	-1.539237	0.084447	-0.131210	-1.267607	0.068613	-0.110045	-1.177064	0.042220	-0.083591	-1.086520	0.527780	-0.610459	-8.057201	0.000000	0.000000	9.072466	-3.475956	14.054406	-1.191831	-15.079004	-10.940470	92.261267	85.186463	-13.643516	23.917160	-23.743935	-9.724569	-39.101358	97.620826	85.629628	-12.366218	17.185179
2.305085	-2.436835	2.318359	89.423479	0.256459	0.923917	0.617088	1.963914	-3.156695	-0.740884	17.125986	0.298905	33.051389	-7.012850	0.000000	-1.962858	4.099601	10.416844	6.544022	0.114215	32.362004	-9.798250	0.000000	0.078265	-0.045561	-1.379923	0.145345	-0.060596	-1.466168	0.128581	-0.110776	-1.466168	0.089449	-0.110776	-1.207432	0.072677	-0.092907	-1.121187	0.044720	-0.070573	-1.034942	0.559037	-0.515391	-7.674716	0.000000	0.000000	8.751453	-3.186881	13.242201	-3.381319	-14.963841	-11.830744	94.828854	83.683637	-12.614031	20.881643	-23.118890	-10.062083	-37.149551	98.798081	85.783644	-13.061161	16.239736
2.322034	-2.338861	2.338428	89.478322	0.256083	0.924062	0.616538	1.822639	-3.089594	-0.947425	17.031921	0.297263	32.860935	-6.884508	0.000000	-2.147211	4.028655	10.728646	6.313292	0.110188	32.169855	-10.121883	0.000000	0.083437	-0.037721	-1.292516	0.154950	-0.050169	-1.373299	0.137078	-0.091715	-1.373299	0.095360	-0.091715	-1.130952	0.077479	-0.076921	-1.050170	0.047676	-0.058430	-0.969387	0.595980	-0.426710	-7.188588	0.000000	0.000000	8.461852	-2.867122	12.295697	-5.381966	-14.835929	-12.609003	97.484192	81.857977	-11.482978	17.930630	-22.750006	-10.392293	-35.306435	100.552806	85.459819	-13.559068	14.953917
2.338983	-2.227176	2.350819	89.385501	0.255887	0.924255	0.615957	1.715760	-3.006569	-1.012258	16.934336	0.295560	32.734842	-6.701770	0.000000	-2.324293	3.954512	10.972758	6.085783	0.106217	31.978963	-10.538966	0.000000	0.090006	-0.030025	-1.173493	0.167150	-0.039933	-1.246836	0.147871	-0.073002	-1.246836	0.102868	-0.073002	-1.026806	0.083580	-0.061226	-0.953463	0.051429	-0.046508	-0.880120	0.642904	-0.339644	-6.526617	0.000000	0.000000	8.225380	-2.589565	11.143553	-7.132550	-14.737249	-13.259937	100.102157	79.625616	-10.232591	15.186796	-22.624193	-10.713182	-33.546133	102.667608	84.480437	-13.650566	13.145403
2.355932	-2.111286	2.339207	89.168797	0.255851	0.924473	0.615392	1.662434	-2.914691	-0.953570	16.829109	0.293723	32.675902	-6.475758	0.000000	-2.454874	3.886574	11.155069	5.894935	0.102886	31.794763	-11.046974	0.000000	0.098853	-0.023470	-1.024611	0.183580	-0.031215	-1.088649	0.162406	-0.057064	-1.088649	0.112979	-0.057064	-0.896534	0.091795	-0.047859	-0.832496	0.056485	-0.036354	-0.768458	0.706099	-0.265492	-5.698577	0.000000	0.000000	8.087795	-2.313031	9.858519	-8.604764	-14.675973	-13.780408	102.604562	77.008092	-8.988949	12.827303	-22.620369	-11.035329	-31.881364	104.922557	82.800837	-13.017517	10.958693
2.372881	-1.981181	2.300582	88.816657	0.255963	0.924704	0.614890	1.673532	-2.802859	-0.748594	16.723298	0.291877	32.673855	-6.213876	0.000000	-2.514947	3.811239	11.179037	5.782801	0.100929	31.665262	-11.546567	0.000000	0.109189	-0.017339	-0.836215	0.202775	-0.023061	-0.888479	0.179387	-0.042158	-0.888479	0.124792	-0.042158	-0.731688	0.101393	-0.035358	-0.679425	0.062391	-0.026858	-0.627162	0.779928	-0.196142	-4.650779	0.000000	0.000000	8.064724	-2.062248	8.327231	-9.836276	-14.694064	-14.216565	104.935912	74.038109	-7.759257	10.959365	-22.548580	-11.434223	-30.121965	107.125560	80.677526	-12.133897	8.426209
2.389831	-1.838964	2.234408	88.340650	0.256219	0.924932	0.614487	1.752978	-2.671286	-0.396626	16.623206	0.290130	32.723860	-5.937091	0.000000	-2.486772	3.723624	10.960075	5.783292	0.100937	31.623295	-11.934628	0.000000	0.120551	-0.012697	-0.605354	0.223876	-0.016887	-0.643189	0.198054	-0.030871	-0.643189	0.137778	-0.030871	-0.529685	0.111944	-0.025892	-0.491850	0.068883	-0.019668	-0.454016	0.861086	-0.143630	-3.366798	0.000000	0.000000	8.150195	-1.818144	6.475262	-10.884241	-14.802743	-14.626451	107.080775	70.831580	-6.607566	9.711482	-22.232608	-11.962103	-28.161037	109.126003	78.479675	-11.337748	5.787488
2.406780	-1.684410	2.140520	87.739157	0.256631	0.925136	0.614204	1.907023	-2.517931	0.092052	16.541484	0.288703	32.822618	-5.645947	0.000000	-2.364372	3.621161	10.495134	5.910848	0.103164	31.674717	-12.217191	0.000000	0.132935	-0.009429	-0.328654	0.246874	-0.012541	-0.349195	0.218400	-0.022926	-0.349195	0.151932	-0.022926	-0.287572	0.123444	-0.019228	-0.267031	0.075959	-0.014606	-0.246490	0.949545	-0.106665	-1.827874	0.000000	0.000000	8.337426	-1.504338	4.362037	-11.806169	-14.998651	-15.066955	109.048418	67.574428	-5.617545	9.191776	-21.549834	-12.622103	-25.962111	110.790380	76.483277	-10.783362	3.208248
2.423729	-1.530117	2.039043	86.995007	0.257269	0.925318	0.614055	2.117828	-2.354514	0.729488	16.484901	0.287716	32.970735	-5.333521	0.000000	-2.166889	3.508880	9.693986	6.177088	0.107811	31.835837	-12.313712	0.000000	0.144384	-0.010547	-0.007344	0.268135	-0.014027	-0.007803	0.237208	-0.025644	-0.007803	0.165016	-0.025644	-0.006426	0.134075	-0.021507	-0.005967	0.082501	-0.016337	-0.005508	1.031320	-0.119309	-0.040845	0.000000	0.000000	8.579729	-1.096363	1.928709	-12.614011	-15.260561	-15.530279	110.815754	64.636144	-4.880254	9.376377	-20.482241	-13.401645	-23.602991	112.130105	74.730358	-10.560680	1.149766
2.440678	-1.364970	1.918570	86.201836	0.258027	0.925480	0.614068	2.374951	-2.166702	1.440418	16.435898	0.286861	33.134889	-5.041210	0.000000	-1.882319	3.371177	8.671074	6.573655	0.114732	32.079879	-12.260947	0.000000	0.157011	-0.013809	0.330008	0.291586	-0.018365	0.350634	0.257954	-0.033574	0.350634	0.179448	-0.033574	0.288757	0.145801	-0.028159	0.268132	0.089716	-0.021390	0.247506	1.121517	-0.156206	1.835406	0.000000	0.000000	8.823394	-0.560358	-0.669122	-13.251206	-15.557617	-15.992608	112.317999	61.926519	-4.355311	10.306774	-19.116000	-14.227500	-21.190510	113.053502	73.189155	-10.666880	-0.754748
2.457627	-1.208738	1.810181	85.308642	0.259016	0.925635	0.614201	2.644510	-1.977873	2.243833	16.397606	0.286192	33.324433	-4.720431	0.000000	-1.554521	3.228840	7.390058	7.094508	0.123823	32.402570	-12.072347	0.000000	0.167744	-0.021897	0.681805	0.311518	-0.029124	0.724418	0.275587	-0.053241	0.724418	0.191715	-0.053241	0.596580	0.155767	-0.044653	0.553967	0.095849	-0.033919	0.511354	1.198180	-0.247708	3.791998	0.000000	0.000000	9.052804	0.081402	-3.375148	-13.689141	-15.866351	-16.372119	113.500190	59.658288	-4.114196	11.764677	-17.576065	-15.081270	-18.829049	113.659816	71.735741	-11.103963	-2.107139
2.474576	-1.067790	1.739610	84.329230	0.260249	0.925829	0.614410	2.882877	-1.797791	3.132779	16.363619	0.285599	33.514151	-4.374370	0.000000	-1.219684	3.086639	5.858848	7.730612	0.134925	32.782132	-11.747127	0.000000	0.174727	-0.035912	1.039904	0.324485	-0.047763	1.104898	0.287058	-0.087317	1.104898	0.199695	-0.087317	0.909916	0.162251	-0.073232	0.844922	0.099839	-0.055628	0.779928	1.248055	-0.406244	5.783634	0.000000	0.000000	9.183224	0.858851	-6.112427	-13.911637	-16.150433	-16.630466	114.304571	57.936981	-4.204238	13.572242	-15.940280	-15.902351	-16.615689	113.966923	70.717947	-11.661061	-2.703612
2.491525	-0.946246	1.694123	83.326437	0.261651	0.926058	0.614670	3.085211	-1.631909	4.019820	16.323474	0.284898	33.678964	-3.982501	0.000000	-0.878650	2.946706	4.198877	8.444526	0.147385	33.195358	-11.334291	0.000000	0.179993	-0.055288	1.386829	0.334266	-0.073532	1.473506	0.295711	-0.134426	1.473506	0.205714	-0.134426	1.213475	0.167142	-0.112742	1.126799	0.102848	-0.085640	1.040122	1.285675	-0.625423	7.713127	0.000000	0.000000	9.222038	1.745227	-8.787200	-13.919614	-16.368293	-16.757006	114.673349	56.735447	-4.525293	15.539734	-14.275630	-16.673361	-14.523744	113.941686	70.327586	-12.479225	-2.768473
